<svg 
    width="18" 
    height="18" 
    viewBox="0 0 18 18" 
    fill="none" xmlns="http://www.w3.org/2000/svg">
    <path d="M8.99954 1V11.6854M8.99954 15.4571V17M8.99954 15.4571C8.47319 15.4571 7.96839 15.2584 7.59619 14.9049C7.224 14.5513 7.01491 14.0717 7.01491 13.5717C7.01491 13.0716 7.224 12.5921 7.59619 12.2385C7.96839 11.8849 8.47319 11.6863 8.99954 11.6863C9.5259 11.6863 10.0307 11.8849 10.4029 12.2385C10.7751 12.5921 10.9842 13.0716 10.9842 13.5717C10.9842 14.0717 10.7751 14.5513 10.4029 14.9049C10.0307 15.2584 9.5259 15.4571 8.99954 15.4571ZM15.0145 1L15.0145 5.97124M15.0145 5.97124C15.5409 5.97124 16.0463 6.17036 16.4186 6.52402C16.7909 6.87769 17 7.35736 17 7.85751C17 8.35755 16.79 8.83711 16.4178 9.1907C16.0456 9.54428 15.5408 9.74292 15.0145 9.74292M15.0145 5.97124C14.488 5.97124 13.9835 6.17036 13.6112 6.52402C13.239 6.87769 13.0298 7.35736 13.0298 7.85751C13.0298 8.35755 13.2389 8.83711 13.6111 9.1907C13.9833 9.54428 14.4881 9.74292 15.0145 9.74292M15.0145 9.74292V17M2.98464 1V3.6854M2.98464 7.45708L2.98464 17M2.98464 7.45708C2.45828 7.45708 1.95348 7.25844 1.58129 6.90486C1.2091 6.55128 1 6.07172 1 5.57168C1 5.32408 1.05133 5.07891 1.15107 4.85016C1.25081 4.62141 1.397 4.41357 1.58129 4.23849C1.76558 4.06342 1.98436 3.92454 2.22515 3.82979C2.46594 3.73504 2.72401 3.68627 2.98464 3.68627C3.24526 3.68627 3.50334 3.73504 3.74413 3.82979C3.98491 3.92454 4.2037 4.06342 4.38799 4.23849C4.57228 4.41357 4.71847 4.62141 4.8182 4.85016C4.91794 5.07891 4.96927 5.32408 4.96927 5.57168C4.96927 6.07172 4.76018 6.55128 4.38799 6.90486C4.0158 7.25844 3.511 7.45708 2.98464 7.45708Z" stroke="white" stroke-width="1.5" stroke-miterlimit="10" stroke-linecap="round"/>
</svg>
