<svg width="20" height="20" viewBox="0 0 20 20" fill="none" xmlns="http://www.w3.org/2000/svg">
<g clip-path="url(#clip0_83_839)">
<path fill-rule="evenodd" clip-rule="evenodd" d="M16.2375 8.125V4.375C18.7075 4.375 18.7331 4.24437 18.7331 5.625C18.7331 7.00563 17.6162 8.125 16.2375 8.125ZM14.99 6.875C14.99 9.63625 12.7562 13.125 9.99997 13.125C7.24372 13.125 5.00997 9.63625 5.00997 6.875V3.125C5.00997 2.50688 5.65934 1.875 6.25747 1.875H13.7425C14.3406 1.875 14.99 2.48687 14.99 3.125V6.875ZM3.76247 8.125C2.38434 8.125 1.26685 7.00563 1.26685 5.625C1.26685 4.24437 1.29247 4.375 3.76247 4.375V8.125ZM16.2375 3.125C16.2375 1.74437 15.1206 0.625 13.7425 0.625H6.25747C4.87934 0.625 3.76247 1.74437 3.76247 3.125C-0.510659 3.125 0.0193516 3.12438 0.0193516 5.625C0.0193516 7.69562 1.69497 9.375 3.76247 9.375C3.91122 9.375 4.05373 9.35125 4.19747 9.33125C5.03498 11.7837 7.00811 13.9931 9.37623 14.33V18.125H7.50497C7.1606 18.125 6.88123 18.4044 6.88123 18.75C6.88123 19.0956 7.1606 19.375 7.50497 19.375H12.495C12.8394 19.375 13.1187 19.0956 13.1187 18.75C13.1187 18.4044 12.8394 18.125 12.495 18.125H10.6237V14.33C12.9918 13.9931 14.965 11.7837 15.8031 9.33125C15.9462 9.35125 16.0887 9.375 16.2375 9.375C18.305 9.375 19.9806 7.69562 19.9806 5.625C19.9806 3.12438 20.5106 3.125 16.2375 3.125Z" fill="#04F06A"/>
</g>
<defs>
<clipPath id="clip0_83_839">
<rect width="20" height="20" fill="white"/>
</clipPath>
</defs>
</svg>
