<svg width="47" height="47" viewBox="0 0 47 47" fill="none" xmlns="http://www.w3.org/2000/svg">
<path d="M10.2812 22.0312H39.6562C40.0458 22.0312 40.4194 22.186 40.6948 22.4614C40.9703 22.7369 41.125 23.1105 41.125 23.5C41.125 23.8895 40.9703 24.2631 40.6948 24.5386C40.4194 24.814 40.0458 24.9688 39.6562 24.9688H10.2812C9.89171 24.9688 9.51813 24.814 9.24269 24.5386C8.96724 24.2631 8.8125 23.8895 8.8125 23.5C8.8125 23.1105 8.96724 22.7369 9.24269 22.4614C9.51813 22.186 9.89171 22.0312 10.2812 22.0312Z" fill="#04F06A"/>
<path d="M10.8893 23.5L23.0711 35.6789C23.3469 35.9547 23.5018 36.3287 23.5018 36.7188C23.5018 37.1088 23.3469 37.4829 23.0711 37.7586C22.7953 38.0344 22.4212 38.1894 22.0312 38.1894C21.6412 38.1894 21.2671 38.0344 20.9913 37.7586L7.77256 24.5399C7.63579 24.4035 7.52727 24.2414 7.45322 24.0629C7.37918 23.8845 7.34106 23.6932 7.34106 23.5C7.34106 23.3068 7.37918 23.1155 7.45322 22.9371C7.52727 22.7587 7.63579 22.5966 7.77256 22.4601L20.9913 9.2414C21.2671 8.96561 21.6412 8.81067 22.0312 8.81067C22.4212 8.81067 22.7953 8.96561 23.0711 9.2414C23.3469 9.51719 23.5018 9.89125 23.5018 10.2813C23.5018 10.6713 23.3469 11.0454 23.0711 11.3211L10.8893 23.5Z" fill="#04F06A"/>
</svg>
